<svg id="spweb_headerLogo" xmlns="http://www.w3.org/2000/svg" viewBox="0 0 106 56"><defs><style>.cls-1{fill:none}.cls-2{fill:#bf0000}</style></defs><title>bank_logo_sp</title><rect class="cls-1" x="4.43" y="1.43" width="89.02" height="53.98" rx="1.51" ry="1.51"/><path class="cls-1" d="M12 9.01h73.87v38.83H12z"/><path class="cls-2" d="M71.47 26.43h-44.7l3.56 3.56 41.14-3.56zM30.91 12v.54a4.52 4.52 0 0 0-2.59-.84c-3.13 0-5.51 2.86-5.51 6.36s2.38 6.36 5.51 6.36a4.51 4.51 0 0 0 2.59-.84v.54h2.75V12zm-2.59 9.5c-1.54 0-2.67-1.52-2.67-3.44s1.13-3.44 2.67-3.44S31 16.17 31 18.09s-1.13 3.44-2.68 3.44zM53 12v7.12a2.26 2.26 0 1 1-4.51 0V12H45.7v7.12a5 5 0 0 0 4.92 5.3A4.22 4.22 0 0 0 53 23.7v.45h2.75V12zM78.61 24.15V17a2.26 2.26 0 1 1 4.51 0v7.12h2.75V17a5 5 0 0 0-4.92-5.3 4.22 4.22 0 0 0-2.34.75V12h-2.75v12.15z"/><path class="cls-2" d="M14.88 24.15v-4.7h2l3.52 4.7H24l-4.26-5.67a5.22 5.22 0 0 0-3-9.48H12v15.15zm0-12.27h1.88a2.35 2.35 0 1 1 0 4.7h-1.88zM63.13 21.29a1.64 1.64 0 0 1-.92.3 1.36 1.36 0 0 1-1.3-1.49v-5.19h2.35V12h-2.35V9h-2.75v3h-1.45v2.88h1.46v5.23a4.14 4.14 0 0 0 4.09 4.33 5.67 5.67 0 0 0 2.69-.76zM40.51 17.71l4.72-5.68h-3.86l-3.3 4.22V8h-2.83v16.16h2.83v-4.99l4.06 4.99h3.86l-5.48-6.45z"/><path class="cls-2" d="M69.49 11.72c-3.19 0-5.47 2.8-5.47 6.37a6.13 6.13 0 0 0 5.74 6.37 5.74 5.74 0 0 0 4.87-2.71l-2.43-1.4c-1.88 2.77-5 1.36-5.38-1.41h7.93c.69-4.36-2.13-7.22-5.26-7.22zm2.4 4.81h-5a2.5 2.5 0 0 1 5 0zM16.2 38.94a16.8 16.8 0 0 1-3.81 2l-.54-2.07a14.1 14.1 0 0 0 3.79-1.81zm2.54 1.53h-2.36v-6.93h2a4.4 4.4 0 0 0 .37-1h2.2a8.68 8.68 0 0 1-.39 1h2.65v6.94h-2.49v.8h6.64v1.86h-5a19.43 19.43 0 0 0 5.26 2.48l-1.14 2a19.85 19.85 0 0 1-5.73-3.7v4h-2V44a19.55 19.55 0 0 1-5.8 3.55l-1-2a16.87 16.87 0 0 0 5.39-2.46h-5.25v-1.82h6.64zm-5.54-7.36a13.27 13.27 0 0 1 2.93 1.94L15 36.7a11.73 11.73 0 0 0-2.83-2zm5 2v1.16h3.09v-1.15zm0 2.51v1.24h3.09v-1.23zm6.06-.75a15.38 15.38 0 0 1 3.47 2.26L26.47 41a12.51 12.51 0 0 0-3.27-2.41zm3.11-2.54a16.53 16.53 0 0 1-2.62 2.51l-1.3-1.48A13.93 13.93 0 0 0 26 33zM35.32 38.34V35h-6.47v-2h15.28v2h-6.68V38.32h6.27v1.94h-5.81c.85 2.7 3.53 4.46 6.47 5.49l-1.21 2.08c-3.29-1.43-5.65-3.63-6.61-6.07a12.14 12.14 0 0 1-6.73 6.09l-1.22-2.1c3-.85 5.39-2.44 6.33-5.49h-5.6v-1.92zM52.16 46.68c-1.07.21-4.07.72-6.17.93l-.23-1.9c.52 0 1.11-.08 2.72-.28v-4.22h-2.66v-1.79h2.65v-1.19H47v-.95a9.07 9.07 0 0 1-.86.7l-.59-2a8.43 8.43 0 0 0 2.95-3.42h2a7.45 7.45 0 0 0 2.5 2.83l-1.12 1.66-.21-.16v1.34H50.2v1.19h2.38v1.79H50.2v4l2.38-.36v1c.15 0 .24 0 .52-.07V32.92h7.46v7.54h-2.9a7.69 7.69 0 0 0 .47 1.82A8.33 8.33 0 0 0 60 40.7l1.17 1.55a10.59 10.59 0 0 1-2.17 1.6 9.14 9.14 0 0 0 2.39 2.39L60.1 48c-.93-.67-3.42-2.44-4.17-7.54h-.88v5c1.21-.23 1.66-.33 2.26-.47v1.86a50 50 0 0 1-5 1zm-4.69-4.8a18.9 18.9 0 0 1 .49 2.8l-1.5.29a12.24 12.24 0 0 0-.46-2.83zm3.79-5.36a10.08 10.08 0 0 1-1.76-2.26 10.47 10.47 0 0 1-1.73 2.26zM52.38 42a16.83 16.83 0 0 1-.49 2.56l-1.25-.24a14.24 14.24 0 0 0 .36-2.54zm2.67-7.3v1.29h3.62v-1.33zm0 2.78v1.34h3.62v-1.37zM67.5 33a12.25 12.25 0 0 1-4.15 4.66l-1-2a8.94 8.94 0 0 0 3.37-3.35zm.5 3.58a14.24 14.24 0 0 1-1.76 3v8.32h-2.06v-6a7.64 7.64 0 0 1-1.17.93l-.67-2.36a12.8 12.8 0 0 0 4-4.71zm9.9 1.06v2h-2.39v6.77c0 1.11-.41 1.5-1.63 1.5h-3.26l-.36-2.15h2.65c.37 0 .52-.07.52-.47v-5.68h-5.56v-2zm-.62-4.49v2h-8.74v-2z"/></svg>