<svg fill="none" height="32" viewBox="0 0 206 32" width="206" xmlns="http://www.w3.org/2000/svg"><g fill="#ff41be"><path d="m5.2142-.00000004c4.74727 0 7.4711 1.94647004 7.4711 5.21655004 0 2.72506-1.5565 4.43795-4.35814 4.82725 3.42424.7786 5.05854 2.3358 5.05854 5.1387 0 3.7372-2.646 5.8394-7.31543 5.8394h-6.07026762v-21.02190004zm-2.87948 8.95377004h2.56819c3.34643 0 5.21419-1.24574 5.21419-3.42579 0-2.33577-1.40081-3.27007-5.05854-3.27007h-2.72384zm0 9.73233h3.34643c3.42426 0 5.13635-1.2457 5.13635-3.7372 0-2.3358-2.17904-3.8151-5.83677-3.8151h-2.72384v7.5523z" transform="translate(114.246 2.56934)"/><path d="m2.41255 2.25791v6.69586h8.24935v2.25793h-8.24935v7.5523h9.26105v2.2579h-11.6736v-21.02190004h11.4401v2.25791004z" transform="translate(129.188 2.56934)"/><path d="m11.9071 15.9611h-7.62678l-1.63431 4.9829h-2.64600525l6.84849525-20.94400004h2.41255l6.84855 20.94400004h-2.6461zm-.6226-2.2579-3.19081-10.35527-3.19079 10.35527z" transform="translate(142.107 2.56934)"/><path d="m14.164 13.1582c0 5.2944-2.4904 8.253-7.08202 8.253-4.59161 0-7.08198238-2.8808-7.08198238-8.253v-13.15820004h2.41254238v13.00240004c0 3.893 1.71212 6.1509 4.74726 6.1509 2.9573 0 4.7473-2.2579 4.7473-6.1509v-13.00240004h2.4125v13.15820004z" transform="translate(159.306 2.56934)"/><path d="m8.40499 2.10219v18.84181h-2.41255v-18.84181h-5.99244238v-2.10219004h14.39740238v2.10219004z" transform="translate(174.87 2.56934)"/><path d="m8.94976 12.3796v8.6423h-2.41254v-8.6423l-6.53722238-12.37960004h2.64602238l5.13637 9.96594004 5.13641-9.96594004h2.646z" transform="translate(190.435 2.56934)"/><path d="m65.1386 0h-65.1385997l5.2141997 5.13869z" transform="translate(21.4794 26.8613)"/><path d="m11.8292.467153v.778587c-1.2451-.778587-2.25685-1.24573993-3.81333-1.24573993-4.59162 0-8.01586941 4.12651993-8.01586941 9.26520993s3.50207941 9.26519 8.01586941 9.26519c1.47865 0 2.56823-.4671 3.81333-1.2457v.7786h3.9691v-17.596147zm-3.81333 13.858847c-2.2569 0-3.8912-2.18-3.8912-4.98293 0-2.80292 1.6343-4.98297 3.8912-4.98297 2.25693 0 3.81333 2.18005 3.81333 4.98297.0779 2.80293-1.5564 4.98293-3.81333 4.98293z" transform="translate(15.7205 5.37225)"/><path d="m10.5841 0v10.3552c0 1.9465-1.32305 3.5815-3.26865 3.5815s-3.26861-1.635-3.26861-3.5815v-10.3552h-4.04684v10.3552c0 4.2823 2.87948 7.7081 7.1598 7.7081 1.9456 0 3.4243-1.0901 3.4243-1.0901v.6229h4.0468v-17.5961z" transform="translate(49.0291 5.83942)"/><path d="m4.04684 18.0633v-10.35527c0-1.94647 1.32302-3.58151 3.26861-3.58151 1.9456 0 3.26865 1.63504 3.26865 3.58151v10.35527h4.0468v-10.35527c0-4.28224-2.8795-7.70803-7.1598-7.70803-1.9456 0-3.42426 1.09002-3.42426 1.09002v-.700726h-4.04683881v17.674006z" transform="translate(92.9218 5.45013)"/><path d="m4.20249 22.1119v-6.8516h2.95731l5.1364 6.8516h5.2142l-6.2259-8.253c1.9456-1.4015 3.1908-3.6594 3.1908-6.22873 0-4.20438-3.4243-7.63017004-7.62679-7.63017004h-6.84851v22.03410004h4.20249zm0-17.82966h2.72384c1.86778 0 3.42427 1.55718 3.42427 3.42579s-1.55649 3.42577-3.42427 3.42577h-2.72384z" transform="translate(0 1.40143)"/><path d="m9.33887 17.9854c-.38912.2336-.77824.4672-1.323.4672-.6226 0-1.86778-.4672-1.86778-2.1801v-7.55231h3.42426v-4.28223h-3.42426v-4.43796004h-4.04684v4.43796004h-2.10125238v4.20437h2.10125238v7.63017c0 3.9708 2.95731 6.3066 5.99244 6.3066 1.08953 0 2.64601-.3893 3.89121-1.0901z" transform="translate(65.1386 1.40143)"/><path d="m7.62675 14.1703 6.92635-8.33088h-5.60335l-4.82508 6.15088v-11.9903h-4.12467v23.5134h4.12467v-7.2409l5.91463 7.2409h5.6033z" transform="translate(33.8535)"/><path d="m7.93804 0c-4.66944 0-7.93803881 4.04866-7.93803881 9.26521 0 5.45009 4.20248881 9.26519 8.32715881 9.26519 2.10124 0 4.82504-.7007 7.08194-3.9708l-3.502-2.0243c-2.72388 4.0486-7.31549 2.0243-7.86026-2.0244h11.51796c1.0117-6.38438-3.113-10.5109-7.62676-10.5109zm3.50206 6.92944h-7.2376c.85606-4.12652 6.4594-4.3601 7.2376 0z" transform="translate(75.8005 5.45013)"/></g></svg>